# xmcd
#
# Track frame offsets: 
#        150
#        17299
#        35782
#        54934
#
# Disc length: 945 seconds
#
# Revision: 2
# Processed by: cddbd v1.5.1PL0 Copyright (c) Steve Scherf et al.
# Submitted via: ExactAudioCopy v0.95a3
#
DISCID=2503af04
DTITLE=Samy Deluxe - Generation
DYEAR=2004
DGENRE=AlternRock
TTITLE0=Generation
TTITLE1=Peoples
TTITLE2=Geschafft
TTITLE3=Verdammtnochma
EXTD=
EXTT0=
EXTT1=
EXTT2=
EXTT3=
PLAYORDER=
